<svg width="655" height="414" viewBox="0 0 655 414" fill="none" xmlns="http://www.w3.org/2000/svg">
<g id="homeback 1" clip-path="url(#clip0)">
<path id="Vector" d="M382 363.5H1C0.734784 363.5 0.480444 363.395 0.292908 363.207C0.105371 363.02 0 362.765 0 362.5C0 362.235 0.105371 361.98 0.292908 361.793C0.480444 361.605 0.734784 361.5 1 361.5H382C382.265 361.5 382.52 361.605 382.707 361.793C382.895 361.98 383 362.235 383 362.5C383 362.765 382.895 363.02 382.707 363.207C382.52 363.395 382.265 363.5 382 363.5Z" fill="#3F3D56"/>
<path id="Vector_2" d="M199.059 238.5C213.971 238.5 226.059 226.412 226.059 211.5C226.059 196.588 213.971 184.5 199.059 184.5C184.147 184.5 172.059 196.588 172.059 211.5C172.059 226.412 184.147 238.5 199.059 238.5Z" fill="#2F2E41"/>
<path id="Vector_3" d="M173.405 378.826L172.69 366.588L219.556 358.003L220.612 376.067L173.405 378.826Z" fill="#FFB8B8"/>
<path id="Vector_4" d="M175.675 357.641L177.055 381.245L162.194 382.113L159.945 343.648C161.897 343.534 163.852 343.806 165.699 344.447C167.545 345.089 169.248 346.087 170.708 347.387C172.169 348.686 173.359 350.261 174.212 352.02C175.064 353.779 175.561 355.689 175.675 357.641Z" fill="#2F2E41"/>
<path id="Vector_5" d="M193.789 378.714L186.004 388.185L145.768 362.666L157.257 348.688L193.789 378.714Z" fill="#FFB8B8"/>
<path id="Vector_6" d="M177.737 392.726L192.751 374.46L204.251 383.913L179.785 413.679C178.275 412.438 177.024 410.911 176.104 409.187C175.184 407.462 174.612 405.573 174.422 403.627C174.232 401.681 174.427 399.717 174.996 397.847C175.564 395.976 176.496 394.236 177.737 392.726V392.726Z" fill="#2F2E41"/>
<path id="Vector_7" d="M171.387 334.67L166.067 359.749C165.944 360.326 165.951 360.924 166.087 361.498C166.223 362.073 166.484 362.61 166.852 363.072C167.219 363.533 167.685 363.908 168.215 364.168C168.744 364.429 169.325 364.569 169.915 364.578L222.213 365.422C222.803 365.431 223.387 365.31 223.924 365.068C224.462 364.825 224.939 364.467 225.321 364.018C225.704 363.569 225.982 363.042 226.137 362.473C226.292 361.904 226.319 361.308 226.217 360.727L221.642 334.805C221.479 333.879 220.994 333.04 220.274 332.436C219.554 331.831 218.643 331.5 217.703 331.5H175.3C174.383 331.5 173.494 331.815 172.782 332.392C172.069 332.969 171.577 333.773 171.387 334.67V334.67Z" fill="#2F2E41"/>
<path id="Vector_8" d="M180.059 343.5C180.059 343.5 129.059 311.5 119.059 328.5C114.059 337 116.559 345.25 120.309 351.375C123.789 356.952 128.785 361.423 134.712 364.266L176.059 384.5L191.059 368.5L181.059 359.5L180.059 343.5Z" fill="#2F2E31"/>
<path id="Vector_9" d="M206.059 338.5C206.059 338.5 272.059 319.5 259.059 355.5C246.059 391.5 197.059 377.5 197.059 377.5L192.059 362.5L209.059 350.5L206.059 338.5Z" fill="#2F2E31"/>
<path id="Vector_10" d="M199.398 244.226C212.962 244.226 223.959 233.23 223.959 219.665C223.959 206.101 212.962 195.104 199.398 195.104C185.833 195.104 174.837 206.101 174.837 219.665C174.837 233.23 185.833 244.226 199.398 244.226Z" fill="#FFB8B8"/>
<path id="Vector_11" d="M200.685 342.469C190.479 342.314 180.325 340.977 170.427 338.482L170.135 338.402L156.429 275.357C155.196 269.817 156.035 264.018 158.786 259.054C161.537 254.09 166.011 250.305 171.362 248.414C187.892 242.483 205.908 242.124 222.662 247.39H222.662C228.284 249.201 233.015 253.066 235.913 258.212C238.811 263.358 239.663 269.408 238.297 275.154L222.989 338.35L222.773 338.452C216.411 341.466 208.456 342.469 200.685 342.469Z" fill="#1AA260"/>
<path id="Vector_12" d="M182.274 347.366C182.772 345.983 183.567 344.726 184.603 343.683C185.64 342.64 186.892 341.837 188.272 341.331C189.652 340.824 191.126 340.627 192.591 340.751C194.056 340.876 195.475 341.321 196.75 342.054L223.736 318.63L226.178 337.038L200.177 356.46C198.804 358.519 196.723 360.003 194.328 360.631C191.934 361.258 189.393 360.986 187.186 359.865C184.98 358.744 183.261 356.852 182.355 354.549C181.45 352.245 181.421 349.69 182.274 347.366V347.366Z" fill="#FFB8B8"/>
<path id="Vector_13" d="M208.012 352.476C207.573 352.475 207.136 352.411 206.716 352.285C206.033 352.086 205.408 351.727 204.892 351.237C204.377 350.747 203.986 350.141 203.753 349.469L200.496 340.24C200.191 339.387 200.152 338.462 200.385 337.587C200.617 336.711 201.11 335.927 201.798 335.338L238.567 313.264L224.073 248.603L224.442 248.514C224.592 248.477 239.442 245.097 245.527 261.324C249.789 272.689 265.559 297.401 264.446 314.101C264.235 317.441 262.904 320.612 260.668 323.103C258.432 325.594 255.422 327.259 252.124 327.828L210.736 351.541C209.957 352.145 208.999 352.474 208.012 352.476Z" fill="#1AA260"/>
<path id="Vector_14" d="M212.136 345.173C211.638 343.789 210.843 342.532 209.807 341.489C208.771 340.446 207.519 339.644 206.139 339.137C204.759 338.631 203.284 338.433 201.819 338.558C200.355 338.683 198.935 339.128 197.661 339.86L170.674 316.436L168.233 334.844L194.234 354.267C195.607 356.326 197.688 357.81 200.082 358.437C202.476 359.065 205.017 358.792 207.224 357.671C209.431 356.55 211.15 354.659 212.055 352.355C212.96 350.052 212.989 347.496 212.136 345.173V345.173Z" fill="#FFB8B8"/>
<path id="Vector_15" d="M189.106 352.476C188.12 352.474 187.162 352.145 186.382 351.541L141.994 329.828C138.696 329.259 135.686 327.594 133.45 325.103C131.214 322.612 129.883 319.441 129.672 316.101C128.559 299.401 147.329 272.689 151.591 261.324C157.676 245.097 172.526 248.476 172.677 248.514L173.045 248.603L155.551 315.264L195.32 335.338C196.008 335.927 196.501 336.711 196.733 337.587C196.966 338.462 196.927 339.387 196.622 340.24L193.365 349.469C193.132 350.141 192.741 350.747 192.226 351.237C191.71 351.727 191.085 352.086 190.402 352.285C189.982 352.411 189.545 352.475 189.106 352.476V352.476Z" fill="#1AA260"/>
<path id="Vector_16" d="M242.059 362.5H153.059C151.203 362.498 149.424 361.76 148.112 360.447C146.799 359.135 146.061 357.356 146.059 355.5V306.5C146.061 304.644 146.799 302.865 148.112 301.553C149.424 300.24 151.203 299.502 153.059 299.5H242.059C243.915 299.502 245.694 300.24 247.006 301.553C248.319 302.865 249.057 304.644 249.059 306.5V355.5C249.057 357.356 248.319 359.135 247.006 360.447C245.694 361.76 243.915 362.498 242.059 362.5V362.5Z" fill="#2F2E41"/>
<path id="Vector_17" d="M197.559 337C200.873 337 203.559 334.314 203.559 331C203.559 327.686 200.873 325 197.559 325C194.245 325 191.559 327.686 191.559 331C191.559 334.314 194.245 337 197.559 337Z" fill="white"/>
<path id="Vector_18" d="M174.591 216.666C173.135 212.973 175.523 208.573 179.066 206.785C182.609 204.996 186.885 205.336 190.675 206.515C193.859 207.506 196.844 209.041 199.951 210.254C203.015 211.611 206.361 212.207 209.704 211.99C213.019 211.616 216.317 209.758 217.673 206.71C219.079 203.552 218.123 199.697 215.958 197.002C213.655 194.396 210.674 192.48 207.346 191.467C200.039 188.892 191.598 188.817 184.814 192.559C178.03 196.302 173.42 204.27 174.822 211.889" fill="#2F2E41"/>
<path id="Vector_19" d="M32.6625 351.818C33.8979 338.513 37.3102 325.501 42.763 313.301C44.2828 309.906 45.9555 306.586 47.7811 303.34C47.8727 303.171 47.8948 302.972 47.8427 302.786C47.7906 302.601 47.6684 302.443 47.5019 302.345C47.3354 302.248 47.1376 302.219 46.9502 302.265C46.7628 302.31 46.6006 302.427 46.4976 302.59C39.8583 314.411 35.2071 327.243 32.7298 340.573C32.0407 344.295 31.5228 348.044 31.176 351.818C31.0879 352.771 32.5749 352.765 32.6625 351.818V351.818Z" fill="#2F2E41"/>
<path id="Vector_20" d="M51.3814 305.724C56.5808 305.724 60.7958 301.509 60.7958 296.31C60.7958 291.111 56.5808 286.896 51.3814 286.896C46.182 286.896 41.967 291.111 41.967 296.31C41.967 301.509 46.182 305.724 51.3814 305.724Z" fill="#FFFF00"/>
<path id="Vector_21" d="M33.6255 352.069C34.427 343.437 36.6407 334.995 40.1782 327.081C41.1641 324.878 42.2493 322.724 43.4337 320.619C43.493 320.508 43.5073 320.38 43.4735 320.259C43.4397 320.139 43.3604 320.036 43.2524 319.973C43.1444 319.91 43.0161 319.891 42.8946 319.921C42.7731 319.95 42.6678 320.026 42.601 320.132C38.2938 327.801 35.2763 336.125 33.6692 344.773C33.2221 347.188 32.8861 349.62 32.6612 352.069C32.604 352.686 33.5687 352.682 33.6255 352.069H33.6255Z" fill="#2F2E41"/>
<path id="Vector_22" d="M45.7694 322.165C49.1425 322.165 51.8769 319.431 51.8769 316.058C51.8769 312.685 49.1425 309.95 45.7694 309.95C42.3963 309.95 39.6618 312.685 39.6618 316.058C39.6618 319.431 42.3963 322.165 45.7694 322.165Z" fill="#FFFF00"/>
<path id="Vector_23" d="M32.4084 351.492C27.7312 344.193 24.2845 336.175 22.2059 327.759C21.6287 325.416 21.1595 323.05 20.7983 320.662C20.7775 320.538 20.7095 320.428 20.6087 320.354C20.508 320.279 20.3823 320.247 20.2583 320.264C20.1343 320.281 20.0216 320.345 19.944 320.443C19.8664 320.541 19.83 320.666 19.8424 320.79C21.163 329.486 23.9039 337.906 27.9555 345.713C29.0882 347.892 30.3191 350.016 31.648 352.085C31.9828 352.607 32.7411 352.011 32.4084 351.492V351.492Z" fill="#2F2E41"/>
<path id="Vector_24" d="M19.8347 321.736C23.2078 321.736 25.9423 319.002 25.9423 315.629C25.9423 312.256 23.2078 309.521 19.8347 309.521C16.4616 309.521 13.7271 312.256 13.7271 315.629C13.7271 319.002 16.4616 321.736 19.8347 321.736Z" fill="#FFFF00"/>
<path id="Vector_25" d="M13.6586 356.896V344.896C13.6599 343.703 14.1345 342.559 14.9781 341.715C15.8217 340.872 16.9655 340.397 18.1586 340.396H46.1586C47.3516 340.397 48.4954 340.872 49.3391 341.715C50.1827 342.559 50.6572 343.703 50.6586 344.896V356.896C50.6572 358.089 50.1827 359.233 49.3391 360.076C48.4954 360.92 47.3516 361.394 46.1586 361.396H18.1586C16.9655 361.394 15.8217 360.92 14.9781 360.076C14.1345 359.233 13.6599 358.089 13.6586 356.896V356.896Z" fill="#2F2E31"/>
<path id="Vector_26" d="M314.409 370.901C314.409 377.478 309.077 380.467 302.5 380.467C295.923 380.467 290.591 377.478 290.591 370.901C290.591 364.324 293.238 356.649 302.5 359.296C311.762 355.326 314.409 364.324 314.409 370.901Z" fill="#EB5757"/>
<path id="Vector_27" d="M301.92 362.377C301.457 362.378 301.009 362.21 300.661 361.904C300.313 361.599 300.088 361.177 300.029 360.718C299.635 357.436 297.461 351.01 296.545 348.399L296.545 348.398C296.452 348.139 296.424 347.861 296.462 347.588C296.501 347.315 296.604 347.056 296.765 346.832C296.919 346.632 297.113 346.467 297.335 346.347C297.557 346.227 297.802 346.156 298.054 346.138C298.305 346.12 298.558 346.155 298.795 346.241C299.032 346.328 299.248 346.464 299.428 346.64C299.59 346.809 299.715 347.009 299.795 347.229C299.876 347.449 299.91 347.682 299.897 347.916C299.717 351.267 302.16 356.681 303.632 359.61C303.771 359.886 303.84 360.192 303.835 360.501C303.83 360.81 303.749 361.114 303.601 361.385C303.452 361.656 303.24 361.887 302.982 362.058C302.725 362.229 302.429 362.335 302.122 362.366C302.055 362.374 301.987 362.377 301.92 362.377V362.377Z" fill="#3F3D56"/>
<path id="Vector_28" d="M310.732 354.985C314.866 351.602 311.623 344.678 306.449 346.007C305.752 346.173 305.111 346.516 304.585 347.001C301.411 349.999 300.919 357.67 300.919 357.67C300.919 357.67 306.524 358.43 310.732 354.985Z" fill="#1AA260"/>
</g>
<defs>
<clipPath id="clip0">
<rect width="655" height="413.68" fill="white"/>
</clipPath>
</defs>
</svg>
