<svg width="383" height="231" viewBox="0 0 383 231" fill="none" xmlns="http://www.w3.org/2000/svg">
<path id="Vector" d="M39.9021 160.181C34.3565 152.66 30.2698 144.399 27.8053 135.727C27.1208 133.313 26.5645 130.876 26.1363 128.414C26.1115 128.287 26.0309 128.173 25.9115 128.097C25.792 128.02 25.643 127.987 25.496 128.004C25.3489 128.022 25.2153 128.088 25.1233 128.189C25.0313 128.29 24.9881 128.418 25.0028 128.547C26.5687 137.507 29.8185 146.182 34.6224 154.226C35.9655 156.471 37.4249 158.66 39.0005 160.792C39.3976 161.33 40.2966 160.716 39.9021 160.181V160.181Z" fill="#2F2E41"/>
<path id="Vector_2" d="M23 135C26.866 135 30 132.314 30 129C30 125.686 26.866 123 23 123C19.134 123 16 125.686 16 129C16 132.314 19.134 135 23 135Z" fill="#FFFF00"/>
<path id="Vector_3" d="M382 180H1C0.734784 180 0.480444 179.895 0.292908 179.707C0.105371 179.52 0 179.265 0 179C0 178.735 0.105371 178.48 0.292908 178.293C0.480444 178.105 0.734784 178 1 178H382C382.265 178 382.52 178.105 382.707 178.293C382.895 178.48 383 178.735 383 179C383 179.265 382.895 179.52 382.707 179.707C382.52 179.895 382.265 180 382 180Z" fill="#3F3D56"/>
<path id="Vector_4" d="M199 54C213.912 54 226 41.9117 226 27C226 12.0883 213.912 0 199 0C184.088 0 172 12.0883 172 27C172 41.9117 184.088 54 199 54Z" fill="#2F2E41"/>
<path id="Vector_5" d="M173.716 195L173 182.658L219.942 174L221 192.218L173.716 195Z" fill="#FFB8B8"/>
<path id="Vector_6" d="M175.675 173.897L177.055 197.603L162.194 198.476L159.945 159.843C161.897 159.728 163.852 160.001 165.699 160.645C167.545 161.289 169.248 162.293 170.708 163.598C172.169 164.903 173.359 166.484 174.212 168.251C175.064 170.018 175.561 171.936 175.675 173.897Z" fill="#2F2E41"/>
<path id="Vector_7" d="M194 195.408L186.218 205L146 179.156L157.484 165L194 195.408Z" fill="#FFB8B8"/>
<path id="Vector_8" d="M177.737 209.135L192.751 190.789L204.251 200.283L179.785 230.179C178.275 228.933 177.024 227.399 176.104 225.667C175.184 223.935 174.612 222.037 174.422 220.083C174.232 218.129 174.427 216.156 174.996 214.278C175.564 212.399 176.496 210.651 177.737 209.135V209.135Z" fill="#2F2E41"/>
<path id="Vector_9" d="M171.38 151.177L166.087 176.313C165.965 176.892 165.972 177.491 166.107 178.067C166.242 178.643 166.501 179.181 166.867 179.644C167.233 180.107 167.697 180.482 168.224 180.743C168.751 181.004 169.329 181.145 169.916 181.154L221.956 181.999C222.542 182.009 223.124 181.888 223.658 181.645C224.193 181.401 224.668 181.042 225.048 180.592C225.429 180.143 225.706 179.614 225.86 179.044C226.014 178.474 226.041 177.876 225.939 177.294L221.388 151.312C221.225 150.384 220.743 149.544 220.026 148.938C219.309 148.332 218.403 148 217.468 148H175.274C174.362 148 173.477 148.316 172.768 148.894C172.059 149.472 171.569 150.278 171.38 151.177V151.177Z" fill="#2F2E41"/>
<path id="Vector_10" d="M179.971 159.985C179.971 159.985 128.834 127.973 118.807 144.979C113.794 153.482 116.301 161.735 120.061 167.863C123.55 173.442 128.559 177.915 134.502 180.759L175.96 201L191 184.994L180.973 175.991L179.971 159.985Z" fill="#2F2E31"/>
<path id="Vector_11" d="M206.062 155.044C206.062 155.044 272.354 135.917 259.296 172.156C246.239 208.395 197.022 194.303 197.022 194.303L192 179.203L209.075 167.123L206.062 155.044Z" fill="#2F2E31"/>
<path id="Vector_12" d="M199.5 60C213.031 60 224 49.031 224 35.5C224 21.969 213.031 11 199.5 11C185.969 11 175 21.969 175 35.5C175 49.031 185.969 60 199.5 60Z" fill="#FFB8B8"/>
<path id="Vector_13" d="M200.778 159C190.58 158.844 180.433 157.489 170.543 154.965L170.25 154.883L156.554 91.061C155.322 85.4528 156.16 79.5815 158.909 74.5562C161.659 69.531 166.129 65.6995 171.477 63.7854C187.995 57.7815 205.999 57.4173 222.74 62.7483H222.74C228.358 64.5823 233.087 68.4944 235.983 73.7042C238.879 78.914 239.729 85.0384 238.364 90.8554L223.067 154.83L222.851 154.934C216.494 157.985 208.544 159 200.778 159Z" fill="#1AA260"/>
<path id="Vector_14" d="M182.612 163.512C183.104 162.139 183.89 160.892 184.914 159.857C185.938 158.822 187.175 158.026 188.539 157.523C189.903 157.021 191.36 156.825 192.808 156.949C194.255 157.073 195.658 157.514 196.918 158.241L223.587 135L226 153.264L200.304 172.534C198.947 174.577 196.891 176.05 194.525 176.672C192.159 177.295 189.647 177.024 187.466 175.912C185.286 174.8 183.587 172.924 182.692 170.638C181.798 168.352 181.769 165.817 182.612 163.512V163.512Z" fill="#FFB8B8"/>
<path id="Vector_15" d="M207.866 169C207.422 169 206.98 168.935 206.555 168.808C205.864 168.608 205.232 168.246 204.71 167.753C204.189 167.259 203.794 166.649 203.558 165.972L200.264 156.68C199.956 155.821 199.916 154.889 200.152 154.008C200.387 153.127 200.885 152.337 201.581 151.744L238.769 129.517L224.11 64.4081L224.483 64.3186C224.634 64.2812 239.654 60.8779 245.809 77.2178C250.119 88.6617 266.069 113.545 264.943 130.359C264.73 133.723 263.383 136.916 261.122 139.424C258.861 141.932 255.817 143.608 252.481 144.182L210.621 168.059C209.832 168.668 208.863 168.999 207.866 169Z" fill="#1AA260"/>
<path id="Vector_16" d="M212.374 161.512C211.871 160.139 211.067 158.892 210.02 157.857C208.973 156.822 207.707 156.026 206.312 155.523C204.917 155.021 203.427 154.825 201.947 154.949C200.466 155.073 199.031 155.514 197.743 156.241L170.468 133L168 151.264L194.28 170.534C195.668 172.577 197.771 174.05 200.191 174.672C202.611 175.295 205.179 175.024 207.409 173.912C209.64 172.8 211.377 170.924 212.292 168.638C213.207 166.352 213.236 163.817 212.374 161.512V161.512Z" fill="#FFB8B8"/>
<path id="Vector_17" d="M189.253 169C188.27 168.999 187.316 168.668 186.539 168.059L142.322 146.196C139.036 145.622 136.038 143.946 133.811 141.438C131.584 138.93 130.258 135.737 130.047 132.373C128.939 115.559 147.637 88.662 151.882 77.2182C157.944 60.8784 172.737 64.2807 172.887 64.319L173.254 64.4085L155.827 131.531L195.443 151.744C196.128 152.337 196.619 153.127 196.851 154.008C197.082 154.889 197.044 155.821 196.74 156.68L193.495 165.972C193.263 166.649 192.874 167.259 192.361 167.753C191.847 168.246 191.224 168.608 190.544 168.808C190.125 168.935 189.69 169 189.253 169V169Z" fill="#1AA260"/>
<path id="Vector_18" d="M242 179H153C151.144 178.998 149.365 178.26 148.053 176.947C146.74 175.635 146.002 173.856 146 172V123C146.002 121.144 146.74 119.365 148.053 118.053C149.365 116.74 151.144 116.002 153 116H242C243.856 116.002 245.635 116.74 246.947 118.053C248.26 119.365 248.998 121.144 249 123V172C248.998 173.856 248.26 175.635 246.947 176.947C245.635 178.26 243.856 178.998 242 179V179Z" fill="#2F2E41"/>
<path id="Vector_19" d="M198 153C201.314 153 204 150.314 204 147C204 143.686 201.314 141 198 141C194.686 141 192 143.686 192 147C192 150.314 194.686 153 198 153Z" fill="white"/>
<path id="Vector_20" d="M176.432 27C174.982 23.3127 177.361 18.9186 180.89 17.1324C184.418 15.3463 188.677 15.686 192.451 16.8632C195.623 17.8525 198.596 19.3856 201.69 20.5965C204.741 21.9521 208.074 22.5472 211.404 22.3311C214.705 21.9573 217.99 20.1013 219.341 17.0583C220.741 13.904 219.789 10.0547 217.633 7.36271C215.339 4.76023 212.37 2.84684 209.056 1.83543C201.778 -0.735499 193.371 -0.810658 186.614 2.92644C179.858 6.66353 175.266 14.6207 176.662 22.2301" fill="#2F2E41"/>
<path id="Vector_21" d="M327 172.497C327 179.03 321.627 182 315 182C308.373 182 303 179.03 303 172.497C303 165.964 305.667 158.341 315 160.969C324.333 157.026 327 165.964 327 172.497Z" fill="#EB5757"/>
<path id="Vector_22" d="M314.186 164C313.747 164.001 313.323 163.835 312.993 163.534C312.664 163.234 312.451 162.818 312.394 162.366C312.021 159.134 309.962 152.803 309.094 150.232L309.094 150.231C309.006 149.976 308.979 149.702 309.016 149.433C309.052 149.164 309.151 148.909 309.303 148.688C309.448 148.491 309.632 148.328 309.843 148.211C310.053 148.093 310.285 148.022 310.523 148.005C310.762 147.987 311.001 148.021 311.225 148.107C311.45 148.192 311.654 148.325 311.826 148.499C311.978 148.666 312.097 148.863 312.173 149.079C312.249 149.296 312.282 149.526 312.269 149.756C312.099 153.056 314.413 158.389 315.807 161.275C315.939 161.547 316.005 161.848 316 162.153C315.995 162.457 315.918 162.756 315.778 163.023C315.637 163.29 315.436 163.517 315.192 163.686C314.948 163.854 314.668 163.958 314.377 163.989C314.313 163.997 314.25 164 314.186 164V164Z" fill="#3F3D56"/>
<path id="Vector_23" d="M323.07 157.221C327.312 153.81 323.984 146.828 318.674 148.169C317.96 148.336 317.301 148.682 316.762 149.171C313.505 152.194 313 159.928 313 159.928C313 159.928 318.751 160.694 323.07 157.221Z" fill="#1AA260"/>
<path id="Vector_24" d="M40.6957 159.264C42.1015 145.505 45.9841 132.05 52.1886 119.434C53.9178 115.924 55.8211 112.49 57.8985 109.134C58.0027 108.959 58.0278 108.753 57.9685 108.561C57.9093 108.369 57.7702 108.206 57.5807 108.105C57.3913 108.005 57.1662 107.975 56.953 108.022C56.7398 108.069 56.5552 108.19 56.438 108.359C48.8835 120.582 43.5911 133.851 40.7723 147.635C39.9882 151.484 39.3988 155.36 39.0043 159.264C38.904 160.248 40.5961 160.242 40.6957 159.264V159.264Z" fill="#2F2E41"/>
<path id="Vector_25" d="M61.5 108C68.4036 108 74 103.971 74 99C74 94.0294 68.4036 90 61.5 90C54.5964 90 49 94.0294 49 99C49 103.971 54.5964 108 61.5 108Z" fill="#FFFF00"/>
<path id="Vector_26" d="M40.4073 161.125C43.269 152.524 48.0087 144.503 54.4372 137.382C56.2281 135.401 58.1439 133.497 60.1843 131.669C60.2876 131.572 60.3335 131.445 60.3123 131.312C60.2912 131.18 60.2047 131.054 60.071 130.96C59.9374 130.866 59.767 130.811 59.596 130.809C59.4249 130.806 59.2664 130.854 59.154 130.944C51.7311 137.604 45.9243 145.285 41.9657 153.682C40.8626 156.028 39.9068 158.421 39.0982 160.861C38.8937 161.477 40.2041 161.736 40.4073 161.125L40.4073 161.125Z" fill="#2F2E41"/>
<path id="Vector_27" d="M67 133C70.866 133 74 130.09 74 126.5C74 122.91 70.866 120 67 120C63.134 120 60 122.91 60 126.5C60 130.09 63.134 133 67 133Z" fill="#FFFF00"/>
<path id="Vector_28" d="M21 175.5V163.5C21.0013 162.307 21.4759 161.163 22.3195 160.32C23.1631 159.476 24.3069 159.001 25.5 159H53.5C54.6931 159.001 55.8369 159.476 56.6805 160.32C57.5241 161.163 57.9987 162.307 58 163.5V175.5C57.9987 176.693 57.5241 177.837 56.6805 178.68C55.8369 179.524 54.6931 179.999 53.5 180H25.5C24.3069 179.999 23.1631 179.524 22.3195 178.68C21.4759 177.837 21.0013 176.693 21 175.5V175.5Z" fill="#2F2E31"/>
</svg>
