<svg width="1110" height="647" viewBox="0 0 1110 647" fill="none" xmlns="http://www.w3.org/2000/svg">
<g id="Frame" clip-path="url(#clip0)">
<path id="Vector" d="M32.8712 642.9C18.0207 639.53 -0.0523421 625.512 3.81691 606.245C5.73587 596.689 13.101 590.504 20.7378 586.504C31.3011 580.972 43.3314 578.887 54.9249 578.36C68.2973 577.753 81.6547 579.284 94.9272 580.904C108.03 582.504 121.134 583.935 134.295 584.81C185.795 588.204 237.61 584.971 287.949 575.223C300.373 572.814 312.723 569.987 324.998 566.744C336.63 563.867 348.002 560.295 359.029 556.056C373.623 550.169 397.356 538.712 395.421 517.495C394.395 506.245 386.51 497.26 378.557 491C368.941 483.431 357.814 478.451 346.916 473.615C296.224 451.12 245.433 428.892 194.691 406.533C182.849 401.315 170.928 396.236 159.434 390.121C148.674 384.396 137.964 377.745 129.304 368.549C121.741 360.517 114.982 349.735 115.221 337.681C115.418 327.685 120.832 319.203 127.462 312.863C143.878 297.168 167.098 290.804 188.085 287.471C214.16 283.329 240.611 283.351 266.702 279.352C287.769 276.123 310.279 269.889 327.413 255.282C334.661 249.34 339.787 241.815 342.213 233.554C344.401 224.902 343.337 215.893 339.17 207.771C334.528 198.456 327.125 191.036 319.34 184.959C310.398 178.077 300.256 172.383 289.266 168.076C266.125 158.811 241.792 153.986 218.089 146.876C206.465 143.389 194.722 139.565 183.928 133.575C174.783 128.5 164.822 121.66 159.734 111.488C149.236 90.5011 174.279 77.9931 188.47 73.2553C198.115 70.1814 208.049 67.7917 218.169 66.1112C220.309 65.7252 219.401 62.1363 217.271 62.5205C206.619 64.2655 196.179 66.8269 186.083 70.1725C177.526 73.16 168.697 77.0861 161.976 83.8421C158.915 86.8924 156.653 90.4494 155.334 94.2822C154.016 98.115 153.672 102.138 154.324 106.09C156.104 116.159 163.844 123.918 171.112 129.538C180.723 136.97 191.682 141.824 202.793 145.78C214.495 149.947 226.445 153.194 238.392 156.38C262.263 162.745 287.205 168.417 308.755 181.961C323.829 191.435 344.308 209.2 339.293 231.219C337.067 240.993 330.308 248.635 323.014 254.256C314.448 260.662 304.569 265.709 293.859 269.152C246.105 285.3 193.549 273.752 147.026 295.685C131.208 303.142 111.995 316.72 111.84 338.083C111.76 349.181 117.054 359.359 123.599 367.404C131.438 377.04 141.59 384.165 151.918 390.12C162.793 396.161 174.085 401.655 185.734 406.572C198.46 412.189 211.189 417.798 223.921 423.4L301.184 457.445L339.572 474.361C351.288 479.524 363.306 484.476 373.958 492.055C382.681 498.26 392.986 508.441 392.096 521.082C391.389 531.121 383.452 538.366 376.2 543.209C366.808 549.481 356.259 553.538 345.762 556.909C333.655 560.797 321.349 564.023 309.019 566.923C283.763 572.855 257.986 577.094 231.932 579.601C205.942 582.116 179.76 582.936 153.62 582.054C140.412 581.607 127.225 580.72 114.059 579.391C100.486 578.017 86.9725 575.901 73.3655 574.962C61.0577 574.113 48.6314 574.31 36.5106 577.039C26.3901 579.318 15.698 583.38 8.01566 591.307C2.35326 597.358 -0.482256 604.939 0.0426453 612.624C0.56277 620.293 3.81688 627.653 9.38187 633.748C15.0345 639.972 22.977 644.452 31.9736 646.491C34.0951 646.973 35.0024 643.384 32.8715 642.901L32.8712 642.9Z" fill="#E6E6E6"/>
<path id="Vector_2" d="M384.86 538.985C398.781 538.985 410.067 529.502 410.067 517.804C410.067 506.107 398.781 496.624 384.86 496.624C370.939 496.624 359.654 506.107 359.654 517.804C359.654 529.502 370.939 538.985 384.86 538.985Z" fill="#E6E6E6"/>
<path id="Vector_3" d="M123.342 347.519C137.263 347.519 148.549 338.036 148.549 326.339C148.549 314.641 137.263 305.158 123.342 305.158C109.421 305.158 98.1354 314.641 98.1354 326.339C98.1354 338.036 109.421 347.519 123.342 347.519Z" fill="#E6E6E6"/>
<path id="Vector_4" d="M170.259 560.466C170.259 560.466 148.47 585.271 143.55 589.405C138.63 593.539 137.224 608.895 137.224 608.895L145.659 625.432L140.739 633.7L102.784 601.808L143.55 551.016L170.259 560.466Z" fill="#FFB8B8"/>
<path id="Vector_5" d="M263.037 408.681C263.037 408.681 184.171 610.613 175.736 615.337C167.302 620.062 125.764 590.406 113.816 583.319C101.867 576.231 203.998 441.404 203.998 441.404C187.832 397.109 195.562 386.829 195.562 386.829L263.037 408.681Z" fill="#2F2E41"/>
<path id="Vector_6" d="M139.333 628.975C139.333 628.975 139.333 621.888 142.047 618.352C144.762 614.815 149.876 630.747 149.876 630.747C149.876 630.747 180.802 637.834 166.745 645.512C152.687 653.19 111.218 628.975 99.2694 622.479C87.3207 615.982 91.5379 608.304 97.8637 602.989L110.164 592.653L139.333 628.975Z" fill="#2F2E41"/>
<path id="Vector_7" d="M288.341 573.459C288.341 573.459 294.666 588.815 300.289 603.58C305.912 618.345 332.621 626.022 332.621 626.022L337.541 636.653L322.781 642.559L279.906 633.7C279.906 633.7 281.312 621.888 281.312 617.754C281.312 613.62 258.82 578.774 258.82 578.774L288.341 573.459Z" fill="#FFB8B8"/>
<path id="Vector_8" d="M232.814 232.091C249.118 232.091 262.334 220.985 262.334 207.286C262.334 193.586 249.118 182.481 232.814 182.481C216.51 182.481 203.294 193.586 203.294 207.286C203.294 220.985 216.51 232.091 232.814 232.091Z" fill="#FFB8B8"/>
<path id="Vector_9" d="M216.648 220.279C216.648 223.823 195.562 250.99 195.562 250.99L226.452 262.575L240.546 228.548L216.648 220.279Z" fill="#FFB8B8"/>
<path id="Vector_10" d="M244.763 349.621C250.562 349.596 256.142 351.483 260.304 354.876C264.467 358.269 266.881 362.898 267.027 367.77L267.957 398.641L272.878 405.728C272.878 405.728 303.15 595.423 303.15 601.329C303.15 607.235 273.09 623.523 255.519 622.341C246.826 621.757 227.336 554.652 219.603 517.914C214.098 491.759 208.726 463.296 203.33 442.284C201.528 434.708 199.169 427.233 196.265 419.902C180.802 383.876 207.511 349.621 207.511 349.621L244.763 349.621Z" fill="#2F2E41"/>
<path id="Vector_11" d="M326.647 633.995C326.647 633.995 330.513 634.881 326.295 633.7C322.078 632.519 323.484 626.022 323.657 622.72C323.831 619.419 364.953 630.156 364.953 638.425C364.953 646.693 312.238 646.693 296.775 645.512C281.312 644.331 277.798 645.512 275.689 637.244C273.58 628.975 281.663 617.459 281.663 617.459L326.647 633.995Z" fill="#2F2E41"/>
<path id="Vector_12" d="M210.302 366.081C215.799 366.081 227.621 354.217 233.808 359.417C238.308 363.198 242.126 366.83 245.495 370.034C255.166 379.233 263.62 387.664 269.495 381.615C270.383 380.701 267.398 382.812 269.887 381.389C270.92 380.798 271.708 379.952 272.143 378.968C272.578 377.984 272.638 376.911 272.315 375.897C263.79 353.457 258.482 331.959 265.261 314.002C265.764 312.576 266.004 311.094 265.973 309.608C265.974 309.39 265.986 309.173 266.009 308.955C266.368 305.641 266.278 293.773 250.095 280.174C235.304 267.746 232.467 260.11 232.093 256.663C232.005 255.861 208.163 235.075 208.163 235.075C206.914 234.635 205.525 234.562 204.222 234.87C202.918 235.177 201.777 235.846 200.984 236.768L193.347 245.592C185.045 259.403 181.422 274.867 182.873 290.292C184.941 310.313 188.531 349.907 191.479 364.19C191.723 365.491 192.545 366.667 193.778 367.48C194.628 368.034 195.641 368.382 196.709 368.489C197.777 368.595 198.859 368.455 199.839 368.083C203.118 366.8 206.685 366.118 210.302 366.081Z" fill="#1AA260"/>
<path id="Vector_13" d="M239.899 208.233L234.6 203.527C235.041 228.306 262.863 242.132 262.863 242.132L200.743 236.928L199.173 230.355L195.928 235.768L188.343 234.154L186.161 230.146L181.481 232.287L191.085 200.422C200.569 170.024 229.49 174.483 229.49 174.483C269.985 163.841 265.022 196.295 265.022 196.295L239.899 208.233Z" fill="#2F2E41"/>
<path id="Vector_14" opacity="0.2" d="M216.24 525.949L204.974 442.224L218.826 519.78L216.24 525.949Z" fill="black"/>
<path id="Vector_15" d="M196.188 187.926C204.815 187.926 211.808 182.05 211.808 174.801C211.808 167.552 204.815 161.676 196.188 161.676C187.561 161.676 180.568 167.552 180.568 174.801C180.568 182.05 187.561 187.926 196.188 187.926Z" fill="#2F2E41"/>
<path id="Vector_16" d="M198.669 185.434C198.994 185.433 199.317 185.441 199.646 185.423L199.679 185.421C203.811 185.192 207.666 183.594 210.397 180.978C213.127 178.361 214.509 174.941 214.239 171.468C213.969 167.996 212.069 164.756 208.957 162.46C205.844 160.164 201.774 159.001 197.642 159.227C197.313 159.244 196.993 159.286 196.671 159.321C200.642 159.311 204.469 160.575 207.37 162.854C210.271 165.134 212.028 168.257 212.283 171.588C212.538 174.919 211.271 178.205 208.742 180.778C206.212 183.351 202.609 185.016 198.669 185.434V185.434Z" fill="#2F2E41"/>
<path id="Vector_17" d="M235.238 214.997C237.934 214.997 240.119 212.426 240.119 209.254C240.119 206.083 237.934 203.512 235.238 203.512C232.542 203.512 230.357 206.083 230.357 209.254C230.357 212.426 232.542 214.997 235.238 214.997Z" fill="#FFB8B8"/>
<path id="Vector_18" d="M293.698 399.687L313.765 411.62C315.512 412.659 316.956 414.017 317.989 415.591C319.022 417.166 319.618 418.917 319.73 420.713C319.843 422.508 319.471 424.302 318.641 425.959C317.81 427.617 316.544 429.095 314.938 430.282C313.39 431.426 311.564 432.272 309.587 432.762C307.611 433.252 305.53 433.374 303.492 433.119C301.454 432.864 299.506 432.238 297.784 431.286C296.063 430.333 294.61 429.077 293.526 427.604L281.914 411.828L241.051 359.937L257.983 349.469L293.698 399.687Z" fill="#FEB8B8"/>
<path id="Vector_19" opacity="0.2" d="M261.472 353.184C261.553 362.38 250.737 370.366 235.459 371.521L200.412 308.95C196.734 302.383 195.356 295.071 196.44 287.87C197.524 280.669 201.025 273.876 206.533 268.285L241.912 304.412C243.011 320.116 250.985 336.395 261.472 353.184Z" fill="black"/>
<path id="Vector_20" d="M261.472 349.182C261.553 358.378 255.5 364.363 240.222 365.518L205.175 302.946C201.497 296.379 200.119 289.067 201.203 281.866C202.287 274.665 205.788 267.872 211.296 262.281L246.675 298.408C247.774 314.113 250.985 332.392 261.472 349.182Z" fill="#1AA260"/>
<path id="Path 1" d="M1103.1 229.968H1065.1C1062.17 230.078 1059.33 230.895 1056.94 232.319C1054.54 233.744 1052.68 235.717 1051.57 238.005L1042.96 258.857L1036.06 275.003L1026.41 298.39C1025.41 301.182 1024.05 303.876 1022.36 306.427C1020.62 303.867 1019.23 301.146 1018.23 298.318L1009.01 275.076C1007.2 270.587 1004.18 263.346 1002.29 258.857L993.67 238.005C992.561 235.706 990.687 233.726 988.272 232.3C985.858 230.875 983.005 230.065 980.056 229.968H833.915C832.58 229.968 831.258 230.189 830.024 230.618C828.791 231.047 827.67 231.677 826.726 232.47C825.781 233.264 825.032 234.205 824.521 235.242C824.011 236.279 823.747 237.389 823.747 238.511V287.24C823.747 289.525 822.667 291.716 820.744 293.332C818.821 294.948 816.213 295.856 813.494 295.856H771.099C768.387 295.837 765.791 294.923 763.873 293.311C761.955 291.7 760.868 289.519 760.845 287.24V238.511C760.847 236.307 759.836 234.187 758.021 232.595C756.206 231.002 753.729 230.061 751.108 229.968H715.779C713.075 229.968 710.48 230.865 708.559 232.466C706.639 234.066 705.548 236.239 705.526 238.511V261.029C724.31 281.158 724.31 317.794 705.526 372.387V398.381C705.548 400.653 706.639 402.826 708.559 404.426C710.48 406.027 713.075 406.924 715.779 406.924H751.108C752.443 406.924 753.766 406.703 754.999 406.274C756.233 405.845 757.354 405.215 758.298 404.422C759.242 403.629 759.991 402.687 760.502 401.65C761.013 400.614 761.276 399.503 761.276 398.381V345.236C761.274 343.012 762.295 340.873 764.125 339.268C765.956 337.662 768.455 336.713 771.099 336.62H813.494C816.19 336.6 818.785 337.482 820.708 339.071C822.631 340.659 823.724 342.825 823.747 345.091L823.748 345.163V398.308C823.748 400.574 824.819 402.747 826.726 404.35C828.632 405.952 831.219 406.852 833.915 406.852H953.085C955.782 406.852 958.368 405.952 960.275 404.349C962.182 402.747 963.253 400.574 963.253 398.308V376.297C963.253 374.031 962.182 371.858 960.275 370.256C958.368 368.654 955.782 367.753 953.085 367.753H889.838C887.133 367.734 884.547 366.818 882.643 365.204C880.739 363.591 879.67 361.41 879.67 359.137V344.656C879.67 342.384 880.739 340.203 882.643 338.589C884.547 336.976 887.133 336.059 889.838 336.04H928.01C930.707 336.04 933.293 335.14 935.2 333.538C937.107 331.936 938.178 329.763 938.178 327.497V305.486C938.178 303.22 937.107 301.047 935.2 299.444C933.293 297.842 930.707 296.942 928.01 296.942H889.838C887.133 296.923 884.547 296.007 882.643 294.393C880.739 292.779 879.67 290.598 879.67 288.326V277.755C879.647 275.489 880.697 273.308 882.587 271.692C884.478 270.077 887.055 269.158 889.751 269.139L889.838 269.139H941.539C944.54 269.274 947.448 270.067 949.972 271.439C952.497 272.811 954.55 274.713 955.929 276.958L989.448 338.14C992.076 343.324 993.537 348.872 993.756 354.503V398.381C993.756 400.647 994.827 402.82 996.734 404.422C998.641 406.024 1001.23 406.924 1003.92 406.924H1039.25C1041.95 406.944 1044.54 406.062 1046.47 404.473C1048.39 402.885 1049.48 400.719 1049.51 398.453L1049.51 398.381V354.503C1049.74 348.881 1051.17 343.339 1053.73 338.14L1109.05 237.715C1109.67 236.897 1110 235.946 1110 234.974C1110 234.003 1109.66 233.053 1109.04 232.237C1108.41 231.421 1107.52 230.773 1106.47 230.371C1105.41 229.968 1104.25 229.828 1103.1 229.968V229.968Z" fill="#1AA260"/>
<path id="Path 2" d="M656.324 260.088C642.786 263.169 630.509 269.303 620.823 277.827C609.535 244.521 585.236 194.127 561.54 185.873C559.035 184.895 556.287 184.437 553.528 184.538C550.769 184.639 548.079 185.296 545.685 186.453C530.864 193.693 521.213 217.007 529.657 261.174C497.086 211.07 485.712 211.143 480.456 211.07C477.931 211.1 475.472 211.754 473.388 212.952C471.304 214.15 469.686 215.837 468.737 217.804C465.204 224.393 458.138 244.955 475.372 289.195C454.605 265.301 448.229 262.26 440.905 262.55C438.561 262.666 436.298 263.313 434.357 264.422C432.415 265.531 430.866 267.06 429.875 268.849C423.671 278.696 424.361 303.458 443.662 340.385C437.051 335.483 428.681 332.578 419.88 332.13C417.51 332.27 415.219 332.906 413.217 333.981C411.215 335.057 409.566 336.536 408.42 338.285C400.578 350.376 417.036 384.334 437.372 407.359C453.83 426.256 486.832 455.291 534.741 455.291C541.449 455.282 548.142 454.749 554.732 453.698C557.024 453.357 559.061 452.265 560.396 450.662C561.73 449.059 562.253 447.077 561.848 445.151C561.444 443.225 560.146 441.512 558.24 440.39C556.333 439.268 553.974 438.827 551.682 439.166C551.578 439.181 551.475 439.198 551.372 439.217C511.562 445.733 481.576 427.342 463.395 410.834C436.252 386.144 424.361 356.458 423.671 347.408C429.358 349.363 445.73 357.472 477.612 391.792C478.961 393.376 481.003 394.445 483.289 394.764C485.576 395.083 487.92 394.626 489.805 393.493C491.69 392.36 492.963 390.644 493.343 388.723C493.722 386.802 493.178 384.832 491.83 383.248C447.023 326.121 442.628 291.512 444.093 279.854C457.277 291.15 490.193 332.565 515.009 363.844C516.256 365.429 518.185 366.547 520.391 366.965C522.597 367.383 524.91 367.068 526.846 366.086C528.782 365.104 530.192 363.532 530.78 361.697C531.368 359.862 531.089 357.907 530.002 356.241C478.302 276.596 480.111 240.394 483.127 228.23C490.882 234.819 511.476 257.771 554.818 336.837C555.785 338.546 557.497 339.877 559.599 340.555C561.701 341.234 564.033 341.208 566.113 340.483C568.192 339.758 569.861 338.389 570.774 336.659C571.687 334.93 571.774 332.971 571.018 331.189C528.968 235.253 547.236 202.744 554.215 199.051C563.263 199.051 588.682 235.688 604.537 283.692C605.485 286.66 606.433 289.557 607.294 292.38C605.07 295.665 603.334 299.167 602.124 302.807C593.508 329.379 584.891 389.692 601.521 406.273C603.176 408.009 605.317 409.375 607.753 410.247C610.189 411.118 612.844 411.469 615.48 411.269C618.819 410.964 622.035 410.039 624.897 408.561C627.758 407.084 630.193 405.09 632.025 402.725C647.449 383.827 638.401 336.402 626.079 294.915C634.473 284.938 646.611 277.62 660.546 274.134C663.524 273.348 666.7 273.256 669.735 273.868C672.77 274.48 675.551 275.773 677.78 277.61C684.845 284.271 697.167 309.178 659.771 397.005C659.386 397.918 659.219 398.885 659.279 399.852C659.339 400.819 659.626 401.767 660.122 402.641C661.124 404.406 662.919 405.765 665.113 406.417C667.307 407.07 669.719 406.964 671.82 406.122C673.921 405.28 675.538 403.772 676.315 401.928C706.129 331.913 710.782 286.805 690.877 267.835C686.546 263.97 681.017 261.197 674.913 259.829C668.808 258.46 662.371 258.55 656.324 260.088ZM617.548 394.543C616.904 395.516 615.864 396.261 614.619 396.643C608.156 390.199 608.156 352.042 615.222 320.763C628.578 374.849 620.823 390.706 617.548 394.543Z" fill="#2F2E41"/>
<path id="Vector_21" d="M281.884 0.886016L211.893 26.4527C208.802 27.5853 206.372 29.702 205.136 32.3384C203.899 34.9748 203.958 37.9156 205.299 40.5156L227.032 82.5236C228.38 85.121 230.899 87.1632 234.037 88.2019C237.174 89.2407 240.674 89.1912 243.768 88.0644L313.759 62.4978C316.85 61.3651 319.28 59.2484 320.517 56.6119C321.753 53.9755 321.694 51.0347 320.353 48.4347L298.62 6.42676C297.272 3.82932 294.753 1.78722 291.615 0.748485C288.478 -0.290247 284.978 -0.240784 281.884 0.886016ZM284.781 6.48708C285.2 6.33583 285.64 6.22947 286.09 6.17052L262.427 43.6847L213.825 32.509C214.128 32.3301 214.452 32.1776 214.791 32.0537L284.781 6.48708ZM310.861 56.8967L240.871 82.4633C239.545 82.9462 238.045 82.9674 236.7 82.5222C235.355 82.077 234.276 81.2019 233.698 80.0887L212.16 38.4579L263.316 50.2212C264.112 50.4043 264.959 50.354 265.717 50.0785C266.475 49.8031 267.099 49.3189 267.486 48.7058L292.253 9.44024L313.687 50.8696C314.262 51.9839 314.287 53.2443 313.757 54.3742C313.228 55.5041 312.186 56.4112 310.861 56.8967H310.861Z" fill="#E6E6E6"/>
</g>
<defs>
<clipPath id="clip0">
<rect width="1110" height="647" fill="white"/>
</clipPath>
</defs>
</svg>
